<svg width="50" height="50" viewBox="0 0 50 50" fill="none" xmlns="http://www.w3.org/2000/svg">
<path d="M50 25C50 38.8071 38.8071 50 25 50C11.1929 50 0 38.8071 0 25C0 11.1929 11.1929 0 25 0C38.8071 0 50 11.1929 50 25Z" fill="#464D3E"/>
<path d="M12.0167 37.6537C10.4479 36.0848 9.51259 34.5009 9.2109 32.9019C8.9092 31.2727 9.1053 29.6888 9.79921 28.1501C10.4931 26.5813 11.534 25.103 12.9218 23.7152C13.9627 22.6743 14.9884 21.8899 15.9991 21.3619L19.71 25.0728L19.4385 25.3443C19.1217 25.4801 18.7823 25.6536 18.4203 25.8648C18.0582 26.076 17.6736 26.3852 17.2663 26.7925C16.2254 27.8334 15.6748 28.8667 15.6145 29.8925C15.5692 30.9031 15.9991 31.861 16.9042 32.7661C17.8093 33.6712 18.7672 34.1012 19.7779 34.0559C20.8037 33.9956 21.837 33.445 22.8779 32.4041C23.2851 31.9968 23.5944 31.6121 23.8056 31.2501C24.0168 30.8881 24.1902 30.5487 24.326 30.2319L24.5975 29.9603L28.3084 33.6712C27.7805 34.6819 26.996 35.7077 25.9552 36.7486C24.5221 38.1816 23.0362 39.2451 21.4976 39.939C19.9438 40.6179 18.3675 40.8064 16.7685 40.5047C15.1694 40.1728 13.5855 39.2225 12.0167 37.6537Z" fill="white"/>
<path d="M37.6537 11.5167C36.0848 9.94786 34.5009 9.01259 32.9019 8.7109C31.2727 8.4092 29.6888 8.6053 28.1501 9.29921C26.5813 9.99312 25.103 11.034 23.7152 12.4218C22.6743 13.4627 21.8899 14.4884 21.3619 15.4991L25.0728 19.21L25.3443 18.9385C25.4801 18.6217 25.6536 18.2823 25.8648 17.9203C26.076 17.5582 26.3852 17.1736 26.7925 16.7663C27.8334 15.7254 28.8667 15.1748 29.8925 15.1145C30.9031 15.0692 31.861 15.4991 32.7661 16.4042C33.6712 17.3093 34.1012 18.2672 34.0559 19.2779C33.9956 20.3037 33.445 21.337 32.4041 22.3779C31.9968 22.7851 31.6121 23.0944 31.2501 23.3056C30.8881 23.5168 30.5487 23.6902 30.2319 23.826L29.9603 24.0975L33.6712 27.8084C34.6819 27.2805 35.7077 26.496 36.7486 25.4552C38.1816 24.0221 39.2451 22.5362 39.939 20.9976C40.6179 19.4438 40.8064 17.8675 40.5047 16.2685C40.1728 14.6694 39.2225 13.0855 37.6537 11.5167Z" fill="white"/>
<path d="M27.6638 18.0359L18.6833 27.3355L22.4584 30.9811L31.4389 21.6815L27.6638 18.0359Z" fill="white"/>
</svg>
